<svg width="24" height="24" viewBox="0 0 24 24" fill="none" xmlns="http://www.w3.org/2000/svg">
<path d="M14.945 1.25C13.578 1.25 12.475 1.25 11.608 1.367C10.708 1.487 9.95002 1.747 9.34802 2.348C8.82402 2.873 8.55802 3.518 8.41902 4.276C8.28402 5.013 8.25802 5.914 8.25202 6.996C8.25096 7.19491 8.32896 7.3861 8.46887 7.5275C8.60877 7.6689 8.79911 7.74894 8.99803 7.75C9.19694 7.75106 9.38812 7.67306 9.52953 7.53316C9.67093 7.39326 9.75096 7.20291 9.75202 7.004C9.75802 5.911 9.78603 5.136 9.89403 4.547C9.99903 3.981 10.166 3.652 10.409 3.409C10.686 3.132 11.075 2.952 11.809 2.853C12.564 2.752 13.565 2.75 15 2.75H16C17.436 2.75 18.437 2.752 19.192 2.853C19.926 2.952 20.314 3.133 20.592 3.409C20.868 3.686 21.048 4.074 21.147 4.809C21.249 5.563 21.25 6.565 21.25 8V16C21.25 17.435 21.249 18.436 21.147 19.192C21.048 19.926 20.868 20.314 20.591 20.591C20.314 20.868 19.926 21.048 19.192 21.147C18.437 21.248 17.436 21.25 16 21.25H15C13.565 21.25 12.564 21.248 11.808 21.147C11.075 21.048 10.686 20.867 10.409 20.591C10.166 20.347 9.99903 20.019 9.89403 19.453C9.78603 18.864 9.75802 18.089 9.75202 16.996C9.7515 16.8975 9.73158 16.8001 9.6934 16.7093C9.65523 16.6185 9.59954 16.5361 9.52953 16.4668C9.45951 16.3976 9.37654 16.3428 9.28534 16.3056C9.19415 16.2684 9.09652 16.2495 8.99803 16.25C8.89953 16.2505 8.80211 16.2704 8.71132 16.3086C8.62052 16.3468 8.53814 16.4025 8.46887 16.4725C8.39959 16.5425 8.34479 16.6255 8.30758 16.7167C8.27038 16.8079 8.2515 16.9055 8.25202 17.004C8.25802 18.086 8.28402 18.987 8.41902 19.724C8.55902 20.482 8.82403 21.127 9.34903 21.652C9.95003 22.254 10.709 22.512 11.609 22.634C12.475 22.75 13.578 22.75 14.945 22.75H16.055C17.423 22.75 18.525 22.75 19.392 22.634C20.292 22.512 21.05 22.254 21.652 21.652C22.254 21.05 22.512 20.292 22.634 19.392C22.75 18.525 22.75 17.422 22.75 16.055V7.945C22.75 6.578 22.75 5.475 22.634 4.608C22.513 3.708 22.254 2.95 21.652 2.348C21.05 1.746 20.292 1.488 19.392 1.367C18.525 1.25 17.422 1.25 16.055 1.25H14.945Z" fill="black"/>
<path d="M15 11.25C15.1989 11.25 15.3897 11.329 15.5303 11.4697C15.671 11.6103 15.75 11.8011 15.75 12C15.75 12.1989 15.671 12.3897 15.5303 12.5303C15.3897 12.671 15.1989 12.75 15 12.75H4.02701L5.98801 14.43C6.13918 14.5594 6.23275 14.7436 6.24813 14.942C6.2635 15.1404 6.19943 15.3368 6.07001 15.488C5.94058 15.6392 5.7564 15.7327 5.55799 15.7481C5.35958 15.7635 5.16318 15.6994 5.01201 15.57L1.51201 12.57C1.42967 12.4996 1.36357 12.4122 1.31825 12.3138C1.27292 12.2154 1.24945 12.1083 1.24945 12C1.24945 11.8917 1.27292 11.7846 1.31825 11.6862C1.36357 11.5878 1.42967 11.5004 1.51201 11.43L5.01201 8.43C5.08686 8.36591 5.1736 8.3172 5.26728 8.28664C5.36096 8.25607 5.45975 8.24426 5.55799 8.25188C5.65624 8.25949 5.75202 8.28638 5.83987 8.33101C5.92772 8.37565 6.00592 8.43714 6.07001 8.512C6.13409 8.58685 6.18281 8.67359 6.21337 8.76727C6.24393 8.86095 6.25574 8.95973 6.24813 9.05798C6.24051 9.15622 6.21362 9.25201 6.16899 9.33986C6.12436 9.42771 6.06286 9.50591 5.98801 9.57L4.02801 11.25H15Z" fill="black"/>
</svg>
