<svg width="32" height="32" viewBox="0 0 32 32" fill="none" xmlns="http://www.w3.org/2000/svg">
<path d="M16.0997 10.3656V15.5484L19.339 18.7877" stroke="black" stroke-width="1.94357" stroke-linecap="round" stroke-linejoin="round"/>
<path d="M6.17193 8.90276L5.20015 8.90665C5.20117 9.16281 5.3033 9.40821 5.48431 9.58947C5.66533 9.77073 5.91059 9.87318 6.16675 9.87455L6.17193 8.90276ZM9.46563 9.8901C9.59325 9.89069 9.71973 9.86614 9.83786 9.81786C9.95599 9.76957 10.0635 9.69849 10.1541 9.60867C10.2448 9.51886 10.3169 9.41206 10.3662 9.29439C10.4156 9.17671 10.4414 9.05046 10.4419 8.92285C10.4425 8.79523 10.418 8.66875 10.3697 8.55062C10.3214 8.43249 10.2503 8.32502 10.1605 8.23436C10.0707 8.14371 9.96392 8.07162 9.84624 8.02224C9.72857 7.97285 9.60232 7.94712 9.4747 7.94653L9.46563 9.8901ZM7.12687 5.5987C7.1255 5.34097 7.0218 5.09434 6.83858 4.91307C6.65536 4.73179 6.40764 4.63073 6.14991 4.6321C5.89218 4.63348 5.64554 4.73718 5.46427 4.9204C5.283 5.10361 5.18193 5.35133 5.18331 5.60907L7.12687 5.5987ZM5.41006 15.5485C5.41006 15.2907 5.30767 15.0436 5.12543 14.8613C4.94318 14.6791 4.69601 14.5767 4.43827 14.5767C4.18054 14.5767 3.93336 14.6791 3.75112 14.8613C3.56888 15.0436 3.46649 15.2907 3.46649 15.5485H5.41006ZM22.4163 26.4907C22.5314 26.4294 22.633 26.3456 22.7151 26.2441C22.7971 26.1427 22.8579 26.0258 22.8938 25.9004C22.9297 25.775 22.9399 25.6436 22.924 25.5142C22.908 25.3847 22.8662 25.2598 22.8009 25.1468C22.7356 25.0339 22.6483 24.9352 22.5441 24.8567C22.4399 24.7783 22.321 24.7216 22.1944 24.69C22.0678 24.6585 21.9362 24.6528 21.8073 24.6732C21.6785 24.6936 21.5551 24.7398 21.4445 24.8089L22.4163 26.4907ZM25.3601 20.8933C25.291 21.0039 25.2448 21.1273 25.2244 21.2561C25.204 21.385 25.2097 21.5166 25.2412 21.6432C25.2728 21.7698 25.3295 21.8887 25.4079 21.9929C25.4864 22.0971 25.5851 22.1844 25.698 22.2497C25.811 22.315 25.9359 22.3568 26.0654 22.3728C26.1948 22.3887 26.3262 22.3784 26.4516 22.3426C26.577 22.3067 26.6939 22.2459 26.7953 22.1638C26.8968 22.0818 26.9806 21.9802 27.0419 21.8651L25.3601 20.8933ZM7.21109 6.56919C7.02793 6.75063 6.92435 6.99741 6.92314 7.25522C6.92192 7.51304 7.02317 7.76078 7.20462 7.94394C7.38606 8.1271 7.63283 8.23068 7.89065 8.2319C8.14846 8.23311 8.3962 8.13186 8.57937 7.95042L7.21109 6.56919ZM24.9908 6.656C20.0412 1.70639 12.0428 1.65715 7.12558 6.57437L8.49903 7.94653C12.6453 3.80155 19.4128 3.82617 23.6174 8.03075L24.9908 6.656ZM7.12558 6.57437L5.48521 8.21474L6.85866 9.58819L8.50033 7.94912L7.12558 6.57437ZM6.16675 9.87455L9.46563 9.8901L9.4747 7.94653L6.17712 7.93098L6.16675 9.87455ZM7.14372 8.89758L7.12687 5.5987L5.18331 5.60907L5.20015 8.90665L7.14372 8.89758ZM16.0997 4.85885C18.9347 4.85885 21.6537 5.98507 23.6584 7.98977C25.6631 9.99446 26.7893 12.7134 26.7893 15.5485H28.7328C28.7328 12.1979 27.4019 8.98464 25.0327 6.61546C22.6635 4.24628 19.4502 2.91529 16.0997 2.91529V4.85885ZM16.0997 26.2381C13.2646 26.2381 10.5457 25.1119 8.54097 23.1072C6.53628 21.1025 5.41006 18.3835 5.41006 15.5485H3.46649C3.46649 18.899 4.79748 22.1123 7.16666 24.4815C9.53584 26.8506 12.7491 28.1816 16.0997 28.1816V26.2381ZM21.4445 24.8089C19.8203 25.7489 17.9762 26.242 16.0997 26.2381V28.1816C18.3996 28.1816 20.5569 27.5662 22.4163 26.4907L21.4445 24.8089ZM26.7893 15.5485C26.7932 17.425 26.3001 19.2691 25.3601 20.8933L27.0419 21.8651C28.153 19.9456 28.7364 17.7663 28.7328 15.5485H26.7893ZM8.57937 7.95042C10.5784 5.96546 13.2825 4.85466 16.0997 4.85885V2.91529C12.7701 2.91086 9.57431 4.22376 7.21109 6.56919L8.57937 7.95042Z" fill="black"/>
</svg>
