<svg width="35" height="35" viewBox="0 0 35 35" fill="none" xmlns="http://www.w3.org/2000/svg">
<path d="M17.5669 14.2459C20.714 14.2459 23.2653 11.6947 23.2653 8.54753C23.2653 5.40039 20.714 2.84912 17.5669 2.84912C14.4197 2.84912 11.8685 5.40039 11.8685 8.54753C11.8685 11.6947 14.4197 14.2459 17.5669 14.2459Z" stroke="black" stroke-width="2.1369"/>
<path d="M21.8407 29.3682C20.5443 29.7201 19.0969 29.9167 17.5669 29.9167C12.0594 29.9167 7.5947 27.3667 7.5947 24.2183C7.5947 21.0699 12.0594 18.5199 17.5669 18.5199C23.0744 18.5199 27.5391 21.0699 27.5391 24.2183C27.5391 24.7098 27.4294 25.187 27.2257 25.6429" stroke="black" stroke-width="2.1369" stroke-linecap="round"/>
</svg>
