<svg width="32" height="32" viewBox="0 0 32 32" fill="none" xmlns="http://www.w3.org/2000/svg">
<path d="M16.2676 19.4355V23.3227M29.2247 15.8127V17.7835C29.2247 22.8368 29.2247 25.3647 27.7061 26.9351C26.1875 28.5055 23.7451 28.5055 18.859 28.5055H13.6762C8.79005 28.5055 6.34634 28.5055 4.82906 26.9351C3.31178 25.3647 3.31049 22.8381 3.31049 17.7835V15.8127C3.31049 12.8469 3.31049 11.3646 3.98426 10.1362C4.65543 8.9066 5.88506 8.14472 8.34302 6.61838L10.9344 5.0104C13.5323 3.39724 14.8319 2.59131 16.2676 2.59131C17.7032 2.59131 19.0015 3.39724 21.6007 5.0104L24.1922 6.61838C26.6501 8.14472 27.8797 8.9066 28.5522 10.1362" stroke="#E43358" stroke-width="1.94357" stroke-linecap="round"/>
</svg>
